<svg width="396" height="111" viewBox="0 0 396 111" fill="none" xmlns="http://www.w3.org/2000/svg">
<g clip-path="url(#clip0_2_2)">
<path d="M12.4587 45.8147C33.0117 25.4249 36.0101 8.30177 29.0896 0C29.0896 0 81.4053 21.4993 50.633 71.3647C45.3654 79.8321 32.2096 89.8345 39.0873 110.446C39.0873 110.446 -26.7406 92.0155 12.4587 45.8147Z" fill="#FFF1F1"/>
<path d="M44.2321 109.429C43.1071 105.246 38.0898 96.1365 53.3919 78.0159C61.5685 68.3579 67.165 47.1423 64.4395 42.0761C64.4395 42.0761 90.5556 76.5703 60.3315 97.2282C42.4111 109.508 44.2321 109.429 44.2321 109.429Z" fill="#FFF1F1"/>
<path d="M126.696 34.2486V41.7562H105.254V50.4581H124.933V57.3969H105.254V67.35H127.151V74.8576H96.3243V34.2486H126.696ZM146.431 44.6568C150.413 44.6568 153.655 45.671 156.157 47.6996C158.66 49.7283 160.025 52.4297 160.252 55.8044H152.346C151.816 52.4297 149.825 50.7425 146.375 50.7425C144.251 50.7425 142.573 51.6145 141.341 53.3587C140.109 55.1029 139.493 57.4159 139.493 60.2975C139.493 63.0655 140.08 65.3025 141.256 67.0088C142.431 68.715 144.081 69.5682 146.204 69.5682C149.882 69.5682 152.024 67.5775 152.631 63.5963H160.423C159.892 67.5016 158.385 70.4878 155.901 72.5541C153.418 74.6204 150.204 75.6538 146.261 75.6538C141.9 75.6538 138.336 74.2604 135.568 71.4735C132.8 68.6866 131.416 65.0563 131.416 60.5819C131.416 55.7284 132.781 51.8612 135.511 48.9793C138.241 46.0975 141.881 44.6568 146.431 44.6568ZM179.248 44.6568C183.95 44.6568 187.666 46.0882 190.396 48.9509C193.126 51.8136 194.491 55.5581 194.491 60.1838C194.491 64.8475 193.098 68.5916 190.311 71.4166C187.524 74.2416 183.837 75.6538 179.248 75.6538C174.585 75.6538 170.888 74.2224 168.158 71.3597C165.428 68.497 164.063 64.7719 164.063 60.1838C164.063 55.4441 165.456 51.6712 168.243 48.8656C171.03 46.0599 174.698 44.6568 179.248 44.6568ZM172.139 60.1838C172.139 63.1791 172.746 65.4919 173.959 67.1225C175.172 68.7532 176.936 69.5682 179.248 69.5682C181.637 69.5682 183.429 68.734 184.623 67.0657C185.818 65.3973 186.415 63.1034 186.415 60.1838C186.415 57.1503 185.799 54.8184 184.566 53.1881C183.334 51.5578 181.542 50.7425 179.192 50.7425C176.917 50.7425 175.172 51.5577 173.959 53.1881C172.746 54.8185 172.139 57.1503 172.139 60.1838ZM222.474 34.2486C225.886 34.2486 228.721 35.3008 230.976 37.4052C233.232 39.5096 234.361 42.1921 234.361 45.4531C234.361 50.534 232.218 53.9275 227.934 55.6337V55.7475C229.374 56.1646 230.502 56.8566 231.318 57.8234C232.133 58.7903 232.749 59.9183 233.166 61.2075C233.583 62.4967 233.849 64.5631 233.962 67.4069C234.114 71.1229 234.645 73.6063 235.555 74.8576H226.625C226.132 73.6063 225.753 71.2554 225.488 67.805C225.185 64.165 224.521 61.7859 223.497 60.6672C222.473 59.5485 220.805 58.9894 218.492 58.9894H209.506V74.8576H200.577V34.2486H222.474ZM219.345 52.6194C221.241 52.6194 222.73 52.1928 223.81 51.3397C224.891 50.4865 225.431 48.9793 225.431 46.8181C225.431 44.7706 224.9 43.3202 223.839 42.4671C222.777 41.614 221.26 41.1874 219.289 41.1874H209.506V52.6194H219.345ZM254.381 44.6568C257.149 44.6568 259.613 45.3013 261.774 46.5905C263.936 47.8797 265.632 49.7471 266.865 52.1927C268.097 54.6384 268.713 57.4537 268.713 60.6387C268.713 60.942 268.694 61.435 268.656 62.1175H247.442C247.518 64.4683 248.134 66.2978 249.29 67.6059C250.447 68.914 252.219 69.5681 254.608 69.5681C256.087 69.5681 257.442 69.1984 258.675 68.4591C259.907 67.7197 260.694 66.8192 261.035 65.7575H268.144C266.059 72.355 261.471 75.6538 254.381 75.6538C251.688 75.6158 249.195 75.0281 246.901 73.8906C244.607 72.7531 242.778 70.9806 241.413 68.5728C240.048 66.165 239.365 63.3687 239.365 60.1837C239.365 57.1884 240.057 54.4581 241.441 51.9937C242.825 49.5293 244.664 47.6902 246.958 46.4768C249.252 45.2633 251.727 44.6568 254.381 44.6568ZM260.58 56.9987C260.201 54.7995 259.499 53.2072 258.476 52.2212C257.452 51.2353 255.992 50.7425 254.096 50.7425C252.125 50.7425 250.57 51.3017 249.432 52.4203C248.295 53.5389 247.631 55.065 247.442 56.9987H260.58ZM283.671 36.6374L283.671 45.4531H289.586V50.8562H283.671V65.4163C283.671 66.7813 283.899 67.6913 284.354 68.1463C284.809 68.6013 285.719 68.8288 287.084 68.8288C288.07 68.8288 288.904 68.753 289.586 68.6013V74.9144C288.449 75.104 286.856 75.1988 284.809 75.1988C281.7 75.1988 279.387 74.668 277.87 73.6063C276.354 72.5446 275.595 70.7057 275.595 68.0894V50.8562H270.704V45.4531H275.595V36.6374H283.671ZM310.63 44.6568C311.313 44.6568 311.9 44.7516 312.393 44.9412V52.4487C311.521 52.2592 310.554 52.1644 309.493 52.1644C304.184 52.1644 301.53 55.3115 301.53 61.6056V74.8576H293.454V45.4531H301.132V50.9131H301.246C302.042 49.0173 303.303 47.5006 305.028 46.3631C306.753 45.2256 308.621 44.6568 310.63 44.6568ZM328.148 44.6568C330.916 44.6568 333.38 45.3013 335.542 46.5905C337.703 47.8797 339.4 49.7471 340.632 52.1927C341.864 54.6384 342.48 57.4537 342.48 60.6387C342.48 60.942 342.461 61.435 342.423 62.1175H321.209C321.285 64.4683 321.901 66.2978 323.057 67.6059C324.214 68.914 325.986 69.5681 328.375 69.5681C329.854 69.5681 331.209 69.1984 332.442 68.4591C333.674 67.7197 334.461 66.8192 334.802 65.7575H341.912C339.826 72.355 335.238 75.6538 328.148 75.6538C325.456 75.6158 322.963 75.0281 320.669 73.8906C318.375 72.7531 316.545 70.9806 315.18 68.5728C313.815 66.165 313.133 63.3687 313.133 60.1837C313.133 57.1884 313.825 54.4581 315.209 51.9937C316.593 49.5293 318.431 47.6902 320.725 46.4768C323.02 45.2633 325.494 44.6568 328.148 44.6568ZM334.347 56.9987C333.968 54.7995 333.267 53.2072 332.243 52.2212C331.219 51.2353 329.759 50.7425 327.863 50.7425C325.892 50.7425 324.337 51.3017 323.2 52.4203C322.062 53.5389 321.399 55.065 321.209 56.9987H334.347ZM360.737 44.6568C369.307 44.6948 373.591 47.4815 373.591 53.0175V68.6013C373.591 71.4829 373.932 73.5685 374.615 74.8576H366.425C366.121 73.9476 365.932 72.9996 365.856 72.0138C363.467 74.4405 360.169 75.6538 355.96 75.6538C352.889 75.6538 350.452 74.8765 348.651 73.3219C346.85 71.7674 345.95 69.606 345.95 66.8382C345.95 64.1461 346.803 62.0606 348.509 60.5819C350.253 59.0273 353.419 58.0415 358.007 57.6244C361.268 57.2831 363.335 56.8566 364.207 56.3447C365.079 55.8328 365.515 55.046 365.515 53.9844C365.515 52.6573 365.117 51.6715 364.32 51.0268C363.524 50.3822 362.197 50.06 360.339 50.06C358.633 50.06 357.344 50.4107 356.472 51.1122C355.6 51.8136 355.088 52.9416 354.936 54.4962H346.86C347.049 51.2734 348.376 48.8278 350.841 47.1593C353.306 45.4909 356.604 44.6568 360.737 44.6568ZM354.026 66.4969C354.026 68.9994 355.675 70.2507 358.974 70.2507C363.297 70.2127 365.477 67.9946 365.515 63.5963V60.4681C364.87 61.1127 363.24 61.5866 360.624 61.89C358.349 62.1554 356.68 62.6199 355.619 63.2835C354.557 63.947 354.026 65.0182 354.026 66.4969ZM390.085 36.6374L390.085 45.4531H396V50.8562H390.085V65.4163C390.085 66.7813 390.312 67.6913 390.767 68.1463C391.222 68.6013 392.132 68.8288 393.497 68.8288C394.483 68.8288 395.317 68.753 396 68.6013V74.9144C394.862 75.104 393.27 75.1988 391.222 75.1988C388.113 75.1988 385.8 74.668 384.284 73.6063C382.767 72.5446 382.009 70.7057 382.009 68.0894V50.8562H377.117V45.4531H382.009V36.6374H390.085Z" fill="#FFF1F1"/>
</g>
<defs>
<clipPath id="clip0_2_2">
<rect width="396" height="110.446" fill="white"/>
</clipPath>
</defs>
</svg>
